# xmcd
#
# Track frame offsets:
#	150
#	24895
#	51802
#	74090
#	96335
#	116000
#	130562
#	148945
#	167935
#	193670
#	213330
#	233112
#
# Disc length: 3336 seconds
#
# Revision: 1862716016
# Processed by: cddbd v1.5.2PL0 Copyright (c) Steve Scherf et al.
# Submitted via: EZCDAudioConverter 8.0.2.1
#
DISCID=b10d060c
DTITLE=Elvis Phương - Tình Khúc Phượng Hoàng 2
DYEAR=1990
DGENRE=World Pop
TTITLE0=Hãy yêu như chưa yêu lần nào
TTITLE1=Vào hạ
TTITLE2=Đêm dài
TTITLE3=Đôi khi ta muốn khóc
TTITLE4=Dình như sương khói
TTITLE5=Tình nhân loại, Thú thiên nhiên
TTITLE6=Lời người điên
TTITLE7=Hát về cuộc sống hôm nay va ngày mai
TTITLE8=Hương thừa
TTITLE9=Bài hát cho người tuổi trẻ
TTITLE10=Còn nhìn nhau hôm nay
TTITLE11=Xin một bóng mát bên đường
EXTD=
EXTT0=
EXTT1=
EXTT2=
EXTT3=
EXTT4=
EXTT5=
EXTT6=
EXTT7=
EXTT8=
EXTT9=
EXTT10=
EXTT11=
PLAYORDER=
